# xmcd
#
# Track frame offsets: 
#        150
#        21518
#        39687
#        55947
#        94282
#        114412
#        132936
#
# Disc length: 2128 seconds
#
# Revision: 0
# Processed by: cddbd v1.5.2PL0 Copyright (c) Steve Scherf et al.
# Submitted via: ExactAudioCopy v0.99pb4
#
DISCID=5f084e07
DTITLE=India Arie - Acoustic Soul [Special Edition] - Disc 2
DYEAR=2007
DGENRE=Neo-Soul
TTITLE0=Video [DJ Dodge Remix]
TTITLE1=Video [Urban Wolves/Dream Team Remix]
TTITLE2=Brown Skin [Bedroom Rockers Radio Remix]
TTITLE3=Brown Skin [E-London Club Mix]
TTITLE4=Brown Skin [*]
TTITLE5=Strength, Courage and Wisdom [*]
TTITLE6=Strength, Courage and Wisdom [live/*]
EXTD=
EXTT0=
EXTT1=
EXTT2=
EXTT3=
EXTT4=
EXTT5=
EXTT6=
PLAYORDER=
